<svg xmlns="http://www.w3.org/2000/svg" version="1.1" xmlns:xlink="http://www.w3.org/1999/xlink" xmlns:svgjs="http://svgjs.dev/svgjs" width="100%" height="100%" viewBox="0 0 1000 600"><rect width="1000" height="600" x="0" y="0" fill="#000000"/><g><rect width="333.3333333333333" height="333.3333333333333" rx="13.333333333333334" ry="13.333333333333334" y="365.172139194332" fill="#f7f7f7" transform="matrix(0.36448471388839815,0,0,0.3644847138883982,0,106.15289274736809)" x="342.9498901367187"/><path d="M360.45170576494627 456.83879664657985L386.00357204918436 456.83879664657985L435.0268200922238 579.2357524599545L484.079370734213 456.83879664657985L509.71914481530047 456.83879664657985L509.71914481530047 606.8388006706796L489.93989052417584 606.8388006706796L489.93989052417584 548.4387209636996L491.8152568569639 485.37952802369904L442.55758802232606 606.8388006706796L427.40814436527205 606.8388006706796L378.2676859264334 485.70185661214697L380.23096005607096 548.4387209636996L380.23096005607096 606.8388006706796L360.45170576494627 606.8388006706796L360.45170576494627 456.83879664657985ZM551.6511639124849 456.83879664657985L594.3157479834144 580.5836720116458L637.1561476480431 456.83879664657985L658.7814656730061 456.83879664657985L603.1651328662585 606.8388006706796L585.6421786942694 606.8388006706796L530.1137536843712 456.83879664657985L551.6511639124849 456.83879664657985Z " fill="#000000" transform="matrix(0.36448471388839815,0,0,0.3644847138883982,0,106.15289274736809)"/><path d="M759.6165769915256 464.54446402455704L783.5288252868894 464.54446402455704L829.406338358155 579.0874240357207L875.311273732512 464.54446402455704L899.3057889371488 464.54446402455704L899.3057889371488 604.9192335474556L880.7957343507145 604.9192335474556L880.7957343507145 550.2665834870654L882.5507617485395 491.25378723520424L836.4538702525456 604.9192335474556L822.2765395544916 604.9192335474556L776.2893372708618 491.5554325692054L778.1266315779598 550.2665834870654L778.1266315779598 604.9192335474556L759.6165769915256 604.9192335474556L759.6165769915256 464.54446402455704ZM924.4794631746992 553.0636584023489L924.4794631746992 551.8022324601623Q924.4794631746992 536.4731650322856 930.5123698547221 524.2153955506026Q936.5178542316543 511.9850483720105 947.2673970433315 505.32142872089423Q958.0169398550089 498.68523137286894 971.8103583097887 498.68523137286894L971.8103583097887 498.68523137286894Q993.1174878115063 498.68523137286894 1006.2801932951928 513.4384304358342Q1019.4428987788793 528.1916294987996 1019.4428987788793 552.6797461590747L1019.4428987788793 552.6797461590747L1019.4428987788793 553.9137497981703Q1019.4428987788793 569.1605503167739 1013.6019482204935 581.2537859799108Q1007.7609976621076 593.3470216430478 996.929187941157 600.0929082034372Q986.0699559171156 606.8387947638266 972.0023144314258 606.8387947638266L972.0023144314258 606.8387947638266Q950.8048741420722 606.8387947638266 937.6421686583857 592.0855957008612Q924.4794631746992 577.359818940987 924.4794631746992 553.0636584023489L924.4794631746992 553.0636584023489ZM942.413649396222 553.9137497981703L942.413649396222 553.9137497981703Q942.413649396222 571.272067654782 950.4483842018891 581.7748097386402Q958.510541310647 592.2775518224983 972.0023144314258 592.2775518224983L972.0023144314258 592.2775518224983Q985.6037767645686 592.2775518224983 993.6110892671444 581.637698223185Q1001.5909794666294 570.9704223207807 1001.5909794666294 551.8022324601623L1001.5909794666294 551.8022324601623Q1001.5909794666294 534.6358707251877 993.4465554485984 523.9960171258745Q985.3021314305673 513.3287412234702 971.8103583097887 513.3287412234702L971.8103583097887 513.3287412234702Q958.5928082199201 513.3287412234702 950.5032288080712 523.8314833073284Q942.413649396222 534.3616476942776 942.413649396222 553.9137497981703ZM1059.6439951103052 456.8387968559822L1059.6439951103052 513.2464743141971Q1071.4904300456233 498.68523137286894 1090.4940860876955 498.68523137286894L1090.4940860876955 498.68523137286894Q1123.565383615458 498.68523137286894 1123.8396066463679 535.9795635766475L1123.8396066463679 535.9795635766475L1123.8396066463679 604.9192335474556L1106.0151096372092 604.9192335474556L1106.0151096372092 535.8972966673743Q1105.905420424845 524.5993077938767 1100.8597166560985 519.2245363880381Q1095.786590584261 513.8223426791085 1085.0918923787658 513.8223426791085L1085.0918923787658 513.8223426791085Q1076.3990222989146 513.8223426791085 1069.845091860162 518.4292895983988Q1063.29116142141 523.06365882078 1059.6439951103052 530.5773698677177L1059.6439951103052 530.5773698677177L1059.6439951103052 604.9192335474556L1041.7920757980555 604.9192335474556L1041.7920757980555 456.8387968559822L1059.6439951103052 456.8387968559822ZM1233.6385082227866 604.9192335474556L1214.936497514715 604.9192335474556Q1213.4008485416184 601.8205132981711 1212.4410679334328 593.922890007959L1212.4410679334328 593.922890007959Q1200.0187646332038 606.8387947638266 1182.742713685865 606.8387947638266L1182.742713685865 606.8387947638266Q1167.3313793487155 606.8387947638266 1157.4319279328597 598.1185023808841Q1147.5598988200945 589.3982099979419 1147.5598988200945 575.9887037864362L1147.5598988200945 575.9887037864362Q1147.5598988200945 559.6998557503741 1159.954779817233 550.6779180334306Q1172.349660814371 541.6834026195783 1194.808527045911 541.6834026195783L1194.808527045911 541.6834026195783L1212.1394225994318 541.6834026195783L1212.1394225994318 533.4841339953651Q1212.1394225994318 524.1331286413296 1206.5726950719559 518.5938234169448Q1200.9785452413894 513.0545181925601 1190.064468611166 513.0545181925601L1190.064468611166 513.0545181925601Q1180.5215071354933 513.0545181925601 1174.0772659091049 517.8534212334874Q1167.6056023796255 522.6797465775059 1167.6056023796255 529.5353223502592L1167.6056023796255 529.5353223502592L1149.6714161581026 529.5353223502592Q1149.6714161581026 521.7199659693204 1155.2381436855785 514.4530556502018Q1160.7774489099634 507.1587230279921 1170.265565779454 502.908266048885Q1179.7536826489445 498.68523137286894 1191.1339384317153 498.68523137286894L1191.1339384317153 498.68523137286894Q1209.1778138656023 498.68523137286894 1219.3789106154595 507.67974678672135Q1229.6074296684073 516.7016845036649 1229.9913419116815 532.5243533871796L1229.9913419116815 532.5243533871796L1229.9913419116815 580.5408060995446Q1229.9913419116815 594.8826706161447 1233.6385082227866 603.3835845743588L1233.6385082227866 603.3835845743588L1233.6385082227866 604.9192335474556ZM1185.3478324795115 591.3177712143129L1185.3478324795115 591.3177712143129Q1193.7390572253616 591.3177712143129 1201.2527682722994 586.9850473259328Q1208.766479319237 582.6523234375525 1212.1394225994318 575.7144807555262L1212.1394225994318 575.7144807555262L1212.1394225994318 554.2976620414445L1198.1814703261057 554.2976620414445Q1165.3843958292537 554.2976620414445 1165.3843958292537 573.493274205154L1165.3843958292537 573.493274205154Q1165.3843958292537 581.8844989510042 1170.9785456598202 586.6011350826586Q1176.572695490387 591.3177712143129 1185.3478324795115 591.3177712143129ZM1257.8524018521512 500.6047925892399L1274.7171182531247 500.6047925892399L1275.210719708763 512.1770044936476Q1286.6732424008064 498.68523137286894 1306.1430775954263 498.68523137286894L1306.1430775954263 498.68523137286894Q1328.026075462055 498.68523137286894 1335.9511210553583 515.4402585614782L1335.9511210553583 515.4402585614782Q1341.1339363395596 507.9265475145405 1349.4703164792277 503.3196005952502Q1357.8341189219868 498.68523137286894 1369.1869524016665 498.68523137286894L1369.1869524016665 498.68523137286894Q1403.5196758716156 498.68523137286894 1404.0955442365266 535.0197829684619L1404.0955442365266 535.0197829684619L1404.0955442365266 604.9192335474556L1386.271047227368 604.9192335474556L1386.271047227368 536.0892527890114Q1386.271047227368 524.900953127878 1381.1430765493483 519.3616479034931Q1376.0425281744197 513.8223426791085 1364.0041371174648 513.8223426791085L1364.0041371174648 513.8223426791085Q1354.049841095427 513.8223426791085 1347.4959106566748 519.7455601467674Q1340.9419802179227 525.6687776144263 1339.899932700464 535.7053405457373L1339.899932700464 535.7053405457373L1339.899932700464 604.9192335474556L1321.9657464789411 604.9192335474556L1321.9657464789411 536.5554319415587Q1321.9657464789411 513.8223426791085 1299.698836369038 513.8223426791085L1299.698836369038 513.8223426791085Q1282.1485623907893 513.8223426791085 1275.6768988613103 528.7674978637108L1275.6768988613103 528.7674978637108L1275.6768988613103 604.9192335474556L1257.8524018521512 604.9192335474556L1257.8524018521512 500.6047925892399ZM1430.887134356447 500.6047925892399L1447.7792730605115 500.6047925892399L1448.2454522130588 512.1770044936476Q1459.7353972081933 498.68523137286894 1479.2052324028132 498.68523137286894L1479.2052324028132 498.68523137286894Q1501.0882302694417 498.68523137286894 1508.9858535596536 515.4402585614782L1508.9858535596536 515.4402585614782Q1514.1960911469464 507.9265475145405 1522.5324712866145 503.3196005952502Q1530.8688514262826 498.68523137286894 1542.2491072090534 498.68523137286894L1542.2491072090534 498.68523137286894Q1576.5818306790025 498.68523137286894 1577.1576990439135 535.0197829684619L1577.1576990439135 535.0197829684619L1577.1576990439135 604.9192335474556L1559.3057797316637 604.9192335474556L1559.3057797316637 536.0892527890114Q1559.3057797316637 524.900953127878 1554.205231356735 519.3616479034931Q1549.1046829818065 513.8223426791085 1537.0388696217606 513.8223426791085L1537.0388696217606 513.8223426791085Q1527.1119959028138 513.8223426791085 1520.5580654640617 519.7455601467674Q1514.004135025309 525.6687776144263 1512.9346652047598 535.7053405457373L1512.9346652047598 535.7053405457373L1512.9346652047598 604.9192335474556L1495.000478983237 604.9192335474556L1495.000478983237 536.5554319415587Q1495.000478983237 513.8223426791085 1472.7335688733338 513.8223426791085L1472.7335688733338 513.8223426791085Q1455.183294895085 513.8223426791085 1448.7390536686971 528.7674978637108L1448.7390536686971 528.7674978637108L1448.7390536686971 604.9192335474556L1430.887134356447 604.9192335474556L1430.887134356447 500.6047925892399ZM1647.3313726538172 606.8387947638266L1647.3313726538172 606.8387947638266Q1626.1339323644638 606.8387947638266 1612.8066930622313 592.9082647935916Q1599.5068760630897 578.9777348233567 1599.5068760630897 555.6687771959952L1599.5068760630897 555.6687771959952L1599.5068760630897 552.3781008250735Q1599.5068760630897 536.8570772755598 1605.4300935307488 524.6541524000588Q1611.3807333014984 512.4786498276487 1622.0205869008118 505.56822944871334Q1632.687862803216 498.68523137286894 1645.1101661034454 498.68523137286894L1645.1101661034454 498.68523137286894Q1665.4575149969774 498.68523137286894 1676.728081567384 512.0673152812835Q1688.0260704408815 525.4768214927892 1688.0260704408815 550.4585396087026L1688.0260704408815 550.4585396087026L1688.0260704408815 557.8625614432763L1617.3587953753395 557.8625614432763Q1617.7427076186136 573.3013180835169 1626.3533107891917 582.7894349530077Q1634.9913362628613 592.2775518224983 1648.2911532620028 592.2775518224983L1648.2911532620028 592.2775518224983Q1657.7518478284023 592.2775518224983 1664.305778267155 588.4384293897565Q1670.859708705907 584.5718846539235 1675.7683009591983 578.2099103368084L1675.7683009591983 578.2099103368084L1686.6549552863307 586.7108242950226Q1673.547094408826 606.8387947638266 1647.3313726538172 606.8387947638266ZM1645.1101661034454 513.3287412234702L1645.1101661034454 513.3287412234702Q1634.3057786855857 513.3287412234702 1626.9840237602853 521.1989422105911Q1619.6622688349844 529.041720894621 1617.9346637402505 543.219051592675L1617.9346637402505 543.219051592675L1670.1741511286318 543.219051592675L1670.1741511286318 541.8753587412153Q1669.406326642083 528.2738964080726 1662.852396203331 520.8150299673168Q1656.2984657645789 513.3287412234702 1645.1101661034454 513.3287412234702ZM1704.3149184769436 553.255614523986L1704.3149184769436 551.8844993694353Q1704.3149184769436 527.8899841647984 1715.695174259714 513.2738966172881Q1727.048007739394 498.68523137286894 1745.4757954165548 498.68523137286894L1745.4757954165548 498.68523137286894Q1763.7938938813522 498.68523137286894 1774.4885920868473 511.21722388546215L1774.4885920868473 511.21722388546215L1774.4885920868473 456.8387968559822L1792.340511399097 456.8387968559822L1792.340511399097 604.9192335474556L1775.9419741506708 604.9192335474556L1775.0644604517584 593.730933886322Q1764.3697622462632 606.8387947638266 1745.283839294918 606.8387947638266L1745.283839294918 606.8387947638266Q1727.1576969517578 606.8387947638266 1715.7225965628054 592.0033287915883Q1704.3149184769436 577.1404405162589 1704.3149184769436 553.255614523986L1704.3149184769436 553.255614523986ZM1722.1394154861023 553.9137497981703L1722.1394154861023 553.9137497981703Q1722.1394154861023 571.6559798980561 1729.4611704114031 581.6925428293671Q1736.8103476397946 591.701683457587 1749.726252395662 591.701683457587L1749.726252395662 591.701683457587Q1766.6732357059086 591.701683457587 1774.4885920868473 576.4823052420745L1774.4885920868473 576.4823052420745L1774.4885920868473 528.5755417420737Q1766.4812795842713 513.8223426791085 1749.9182085172993 513.8223426791085L1749.9182085172993 513.8223426791085Q1736.8103476397946 513.8223426791085 1729.4611704114031 523.9411725196924Q1722.1394154861023 534.0600023602765 1722.1394154861023 553.9137497981703ZM1878.2271646801519 464.54446402455704L1918.1266156775764 580.3488499779073L1958.2454450997293 464.54446402455704L1978.483104780897 464.54446402455704L1926.4355735141535 604.9192335474556L1910.0370362657272 604.9192335474556L1858.0717719082563 464.54446402455704L1878.2271646801519 464.54446402455704ZM2073.1723173541677 604.9192335474556L2054.470306646096 604.9192335474556Q2052.9072353699084 601.8205132981711 2051.947454761723 593.922890007959L2051.947454761723 593.922890007959Q2039.5251514614934 606.8387947638266 2022.249100514155 606.8387947638266L2022.249100514155 606.8387947638266Q2006.8377661770055 606.8387947638266 1996.9383147611493 598.1185023808841Q1987.0662856483846 589.3982099979419 1987.0662856483846 575.9887037864362L1987.0662856483846 575.9887037864362Q1987.0662856483846 559.6998557503741 1999.4611666455226 550.6779180334306Q2011.8560476426605 541.6834026195783 2034.314913874201 541.6834026195783L2034.314913874201 541.6834026195783L2051.6732317308124 541.6834026195783L2051.6732317308124 533.4841339953651Q2051.6732317308124 524.1331286413296 2046.079081900246 518.5938234169448Q2040.484932069679 513.0545181925601 2029.5708554394555 513.0545181925601L2029.5708554394555 513.0545181925601Q2020.0278939637828 513.0545181925601 2013.5836527373945 517.8534212334874Q2007.1119892079155 522.6797465775059 2007.1119892079155 529.5353223502592L2007.1119892079155 529.5353223502592L1989.1778029863926 529.5353223502592Q1989.1778029863926 521.7199659693204 1994.744530513868 514.4530556502018Q2000.283835738253 507.1587230279921 2009.7719526077435 502.908266048885Q2019.2600694772345 498.68523137286894 2030.6403252600053 498.68523137286894L2030.6403252600053 498.68523137286894Q2048.6842006938923 498.68523137286894 2058.8852974437496 507.67974678672135Q2069.113816496698 516.7016845036649 2069.4977287399715 532.5243533871796L2069.4977287399715 532.5243533871796L2069.4977287399715 580.5408060995446Q2069.4977287399715 594.8826706161447 2073.1723173541677 603.3835845743588L2073.1723173541677 603.3835845743588L2073.1723173541677 604.9192335474556ZM2024.854219307801 591.3177712143129L2024.854219307801 591.3177712143129Q2033.2454440536512 591.3177712143129 2040.759155100589 586.9850473259328Q2048.3002884506177 582.6523234375525 2051.6732317308124 575.7144807555262L2051.6732317308124 575.7144807555262L2051.6732317308124 554.2976620414445L2037.6878571543957 554.2976620414445Q2004.8907826575432 554.2976620414445 2004.8907826575432 573.493274205154L2004.8907826575432 573.493274205154Q2004.8907826575432 581.8844989510042 2010.4849324881102 586.6011350826586Q2016.0790823186771 591.3177712143129 2024.854219307801 591.3177712143129ZM2115.292974901964 456.8387968559822L2115.292974901964 513.2464743141971Q2127.139409837282 498.68523137286894 2146.1430658793543 498.68523137286894L2146.1430658793543 498.68523137286894Q2179.214363407117 498.68523137286894 2179.4885864380267 535.9795635766475L2179.4885864380267 535.9795635766475L2179.4885864380267 604.9192335474556L2161.6640894288685 604.9192335474556L2161.6640894288685 535.8972966673743Q2161.5544002165043 524.5993077938767 2156.5086964477578 519.2245363880381Q2151.43557037592 513.8223426791085 2140.740872170425 513.8223426791085L2140.740872170425 513.8223426791085Q2132.0754243936644 513.8223426791085 2125.5214939549123 518.4292895983988Q2118.940141213069 523.06365882078 2115.292974901964 530.5773698677177L2115.292974901964 530.5773698677177L2115.292974901964 604.9192335474556L2097.441055589715 604.9192335474556L2097.441055589715 456.8387968559822L2115.292974901964 456.8387968559822ZM2225.5854779340207 500.6047925892399L2225.5854779340207 604.9192335474556L2207.7335586217714 604.9192335474556L2207.7335586217714 500.6047925892399L2225.5854779340207 500.6047925892399ZM2206.307598861038 472.9356887704072L2206.307598861038 472.9356887704072Q2206.307598861038 468.60296488202704 2208.9401399577755 465.61393384510654Q2211.600103357604 462.62490280818605 2216.810340944897 462.62490280818605Q2222.0205785321896 462.62490280818605 2224.707964235108 465.61393384510654Q2227.4227722411188 468.60296488202704 2227.4227722411188 472.9356887704072Q2227.4227722411188 477.2684126587873 2224.707964235108 480.17517678643475Q2222.0205785321896 483.0545186109912 2216.810340944897 483.0545186109912Q2211.600103357604 483.0545186109912 2208.9401399577755 480.17517678643475Q2206.307598861038 477.2684126587873 2206.307598861038 472.9356887704072ZM2260.4666474657897 475.34885144241633L2278.31856677804 475.34885144241633L2278.31856677804 500.6047925892399L2297.78840197266 500.6047925892399L2297.78840197266 514.3982110440197L2278.31856677804 514.3982110440197L2278.31856677804 579.0874240357207Q2278.31856677804 585.339709140472 2280.9236855716863 588.4932739959384Q2283.5288043653327 591.6194165483139 2289.781089470084 591.6194165483139L2289.781089470084 591.6194165483139Q2292.8798097193685 591.6194165483139 2298.2820034282977 590.4676798184914L2298.2820034282977 590.4676798184914L2298.2820034282977 604.9192335474556Q2291.2344715339077 606.8387947638266 2284.5708518827914 606.8387947638266L2284.5708518827914 606.8387947638266Q2272.614727735109 606.8387947638266 2266.554398751995 599.6267290508899Q2260.4666474657897 592.3872410348624 2260.4666474657897 579.0874240357207L2260.4666474657897 579.0874240357207L2260.4666474657897 514.3982110440197L2241.4904137268086 514.3982110440197L2241.4904137268086 500.6047925892399L2260.4666474657897 500.6047925892399L2260.4666474657897 475.34885144241633ZM2336.453849330989 456.8387968559822L2336.453849330989 513.2464743141971Q2348.3002842663063 498.68523137286894 2367.3039403083794 498.68523137286894L2367.3039403083794 498.68523137286894Q2400.3752378361414 498.68523137286894 2400.649460867052 535.9795635766475L2400.649460867052 535.9795635766475L2400.649460867052 604.9192335474556L2382.8249638578927 604.9192335474556L2382.8249638578927 535.8972966673743Q2382.7152746455286 524.5993077938767 2377.669570876782 519.2245363880381Q2372.5964448049444 513.8223426791085 2361.9017465994493 513.8223426791085L2361.9017465994493 513.8223426791085Q2353.2088765195986 513.8223426791085 2346.6549460808455 518.4292895983988Q2340.1010156420934 523.06365882078 2336.453849330989 530.5773698677177L2336.453849330989 530.5773698677177L2336.453849330989 604.9192335474556L2318.601930018739 604.9192335474556L2318.601930018739 456.8387968559822L2336.453849330989 456.8387968559822Z " fill="#f7f7f7" transform="matrix(0.36448471388839815,0,0,0.3644847138883982,0,106.15289274736809)"/></g></svg>